<svg width="345" height="259" viewBox="0 0 345 259" fill="none" xmlns="http://www.w3.org/2000/svg">
<circle r="2.85134" transform="matrix(-1 0 0 1 258.537 147.053)" fill="#2F80ED"/>
<path d="M60.0837 233.164L72.9504 228.704C141.083 205.089 215.422 206.671 282.488 233.164V233.164" stroke="#2F80ED" stroke-width="4.56214"/>
<circle r="6.89625" transform="matrix(-1 0 0 1 61.2773 175.62)" fill="#2F80ED"/>
<path d="M124.973 123L213.473 125.5L227.473 222H111.473L124.973 123Z" fill="#ECF3F6"/>
<g opacity="0.2">
<mask id="path-5-inside-1" fill="white">
<path fill-rule="evenodd" clip-rule="evenodd" d="M254.416 134.864C247.79 134.219 242.611 128.634 242.611 121.838C242.611 114.61 248.471 108.751 255.699 108.751C255.785 108.751 255.87 108.752 255.956 108.753V108.751C255.956 97.696 264.917 88.7344 275.972 88.7344C283.358 88.7344 289.809 92.7344 293.278 98.6862C294.162 98.5543 295.067 98.4859 295.988 98.4859C306.051 98.4859 314.209 106.643 314.209 116.706C314.209 126.126 307.06 133.876 297.892 134.828V134.926H254.416V134.864Z"/>
</mask>
<path d="M254.416 134.864H256.697V132.794L254.637 132.594L254.416 134.864ZM255.956 108.753L255.912 111.034L258.237 111.079V108.753H255.956ZM293.278 98.6862L291.307 99.8348L292.086 101.17L293.614 100.942L293.278 98.6862ZM297.892 134.828L297.656 132.559L295.611 132.771V134.828H297.892ZM297.892 134.926V137.207H300.173V134.926H297.892ZM254.416 134.926H252.135V137.207H254.416V134.926ZM254.637 132.594C249.168 132.061 244.892 127.448 244.892 121.838H240.33C240.33 129.819 246.412 136.377 254.195 137.134L254.637 132.594ZM244.892 121.838C244.892 115.87 249.731 111.032 255.699 111.032V106.47C247.211 106.47 240.33 113.35 240.33 121.838H244.892ZM255.699 111.032C255.77 111.032 255.841 111.032 255.912 111.034L256 106.473C255.9 106.471 255.799 106.47 255.699 106.47V111.032ZM258.237 108.753V108.751H253.675V108.753H258.237ZM258.237 108.751C258.237 98.9558 266.177 91.0154 275.972 91.0154V86.4533C263.658 86.4533 253.675 96.4362 253.675 108.751H258.237ZM275.972 91.0154C282.513 91.0154 288.23 94.5553 291.307 99.8348L295.249 97.5375C291.388 90.9134 284.202 86.4533 275.972 86.4533V91.0154ZM293.614 100.942C294.388 100.827 295.18 100.767 295.988 100.767V96.2049C294.954 96.2049 293.937 96.2816 292.941 96.4301L293.614 100.942ZM295.988 100.767C304.791 100.767 311.927 107.903 311.927 116.706H316.49C316.49 105.384 307.311 96.2049 295.988 96.2049V100.767ZM311.927 116.706C311.927 124.945 305.674 131.727 297.656 132.559L298.128 137.097C308.446 136.025 316.49 127.307 316.49 116.706H311.927ZM295.611 134.828V134.926H300.173V134.828H295.611ZM297.892 132.645H254.416V137.207H297.892V132.645ZM256.697 134.926V134.864H252.135V134.926H256.697Z" fill="#202020" mask="url(#path-5-inside-1)"/>
</g>
<g opacity="0.2">
<mask id="path-7-inside-2" fill="white">
<path fill-rule="evenodd" clip-rule="evenodd" d="M252.473 71.1916H195.55C195.535 71.1917 195.52 71.1917 195.505 71.1917C195.49 71.1917 195.475 71.1917 195.46 71.1916H193.688V71.1296C184.306 70.4849 176.973 64.8992 176.973 58.104C176.973 50.8759 185.27 45.0164 195.505 45.0164C195.626 45.0164 195.747 45.0172 195.868 45.0189V45.0164C195.868 33.9616 208.557 25 224.21 25C234.668 25 243.803 29 248.714 34.9519C249.966 34.82 251.248 34.7516 252.552 34.7516C266.8 34.7516 278.351 42.909 278.351 52.9717C278.351 62.3915 268.229 70.1416 255.248 71.0935V71.1916H252.631C252.605 71.1917 252.579 71.1917 252.552 71.1917C252.526 71.1917 252.499 71.1917 252.473 71.1916Z"/>
</mask>
<path d="M252.473 71.1916L252.478 68.9106H252.473V71.1916ZM195.55 71.1916L195.55 68.9106L195.546 68.9106L195.55 71.1916ZM195.46 71.1916L195.464 68.9106H195.46V71.1916ZM193.688 71.1916H191.407V73.4727H193.688V71.1916ZM193.688 71.1296H195.969V68.9999L193.844 68.8539L193.688 71.1296ZM195.868 45.0189L195.837 47.2997L198.149 47.3311V45.0189H195.868ZM248.714 34.9519L246.955 36.4038L247.735 37.3488L248.953 37.2204L248.714 34.9519ZM255.248 71.0935L255.081 68.8185L252.967 68.9735V71.0935H255.248ZM255.248 71.1916V73.4727H257.529V71.1916H255.248ZM252.631 71.1916L252.631 68.9106L252.626 68.9106L252.631 71.1916ZM252.473 68.9106H195.55V73.4727H252.473V68.9106ZM195.546 68.9106C195.532 68.9106 195.519 68.9106 195.505 68.9106V73.4727C195.521 73.4727 195.537 73.4727 195.554 73.4727L195.546 68.9106ZM195.505 68.9106C195.491 68.9106 195.477 68.9106 195.464 68.9106L195.455 73.4727C195.472 73.4727 195.489 73.4727 195.505 73.4727V68.9106ZM195.46 68.9106H193.688V73.4727H195.46V68.9106ZM195.969 71.1916V71.1296H191.407V71.1916H195.969ZM193.844 68.8539C189.542 68.5583 185.811 67.1334 183.209 65.1193C180.607 63.1059 179.254 60.6217 179.254 58.104H174.692C174.692 62.3815 177.006 66.0878 180.416 68.7272C183.826 71.3658 188.452 73.0562 193.532 73.4053L193.844 68.8539ZM179.254 58.104C179.254 55.4295 180.786 52.7829 183.717 50.7129C186.642 48.6472 190.802 47.2975 195.505 47.2975V42.7353C189.972 42.7353 184.867 44.3154 181.085 46.9865C177.309 49.6533 174.692 53.5505 174.692 58.104H179.254ZM195.505 47.2975C195.616 47.2975 195.727 47.2982 195.837 47.2997L195.899 42.738C195.768 42.7362 195.636 42.7353 195.505 42.7353V47.2975ZM198.149 45.0189V45.0164H193.587V45.0189H198.149ZM198.149 45.0164C198.149 40.4285 200.779 36.0497 205.485 32.7259C210.186 29.4063 216.799 27.2811 224.21 27.2811V22.7189C215.969 22.7189 208.411 25.0745 202.853 28.9994C197.302 32.9201 193.587 38.5495 193.587 45.0164H198.149ZM224.21 27.2811C234.154 27.2811 242.573 31.0934 246.955 36.4038L250.474 33.5C245.033 26.9067 235.182 22.7189 224.21 22.7189V27.2811ZM248.953 37.2204C250.126 37.0969 251.328 37.0327 252.552 37.0327V32.4706C251.168 32.4706 249.807 32.5431 248.475 32.6834L248.953 37.2204ZM252.552 37.0327C259.261 37.0327 265.239 38.9569 269.479 41.9514C273.725 44.9501 276.07 48.8798 276.07 52.9717H280.632C280.632 47.0009 277.202 41.8206 272.11 38.2249C267.013 34.6251 260.091 32.4706 252.552 32.4706V37.0327ZM276.07 52.9717C276.07 56.8056 274.016 60.4881 270.266 63.4083C266.514 66.3294 261.184 68.371 255.081 68.8185L255.415 73.3684C262.292 72.8641 268.514 70.5547 273.069 67.0078C277.625 63.46 280.632 58.5575 280.632 52.9717H276.07ZM252.967 71.0935V71.1916H257.529V71.0935H252.967ZM255.248 68.9106H252.631V73.4727H255.248V68.9106ZM252.626 68.9106C252.602 68.9106 252.577 68.9107 252.552 68.9107V73.4728C252.58 73.4728 252.608 73.4728 252.636 73.4727L252.626 68.9106ZM252.552 68.9107C252.527 68.9107 252.503 68.9106 252.478 68.9106L252.468 73.4727C252.496 73.4728 252.524 73.4728 252.552 73.4728V68.9107Z" fill="#202020" mask="url(#path-7-inside-2)"/>
</g>
<g opacity="0.2">
<mask id="path-9-inside-3" fill="white">
<path fill-rule="evenodd" clip-rule="evenodd" d="M71.3551 113.437H40.9169C40.9123 113.437 40.9076 113.437 40.903 113.437C40.8984 113.437 40.8938 113.437 40.8891 113.437H39.9321V113.399C34.9185 113.008 31 109.621 31 105.499C31 101.115 35.4337 97.5616 40.903 97.5616C40.9679 97.5616 41.0327 97.5621 41.0973 97.5631V97.5616C41.0973 90.8568 47.8783 85.4215 56.2431 85.4215C61.8315 85.4215 66.7131 87.8476 69.3379 91.4574C70.0071 91.3774 70.6919 91.3359 71.3889 91.3359C79.003 91.3359 85.1755 96.2835 85.1755 102.387C85.1755 108.1 79.7664 112.8 72.8292 113.378V113.437H71.4227C71.4114 113.437 71.4002 113.437 71.3889 113.437C71.3776 113.437 71.3664 113.437 71.3551 113.437Z"/>
</mask>
<path d="M71.3551 113.437L71.3594 111.156H71.3551V113.437ZM40.9169 113.437L40.9169 111.156L40.9141 111.156L40.9169 113.437ZM40.8891 113.437L40.892 111.156H40.8891V113.437ZM39.9321 113.437H37.651V115.718H39.9321V113.437ZM39.9321 113.399H42.2132V111.289L40.1095 111.125L39.9321 113.399ZM41.0973 97.5631L41.0621 99.8439L43.3783 99.8796V97.5631H41.0973ZM69.3379 91.4574L67.493 92.7989L68.2799 93.8812L69.6086 93.7223L69.3379 91.4574ZM72.8292 113.378L72.64 111.104L70.5481 111.278V113.378H72.8292ZM72.8292 113.437V115.718H75.1102V113.437H72.8292ZM71.4227 113.437L71.4227 111.156L71.4184 111.156L71.4227 113.437ZM71.3551 111.156H40.9169V115.718H71.3551V111.156ZM40.9141 111.156C40.9107 111.156 40.907 111.156 40.903 111.156V115.718C40.9082 115.718 40.9139 115.718 40.9197 115.718L40.9141 111.156ZM40.903 111.156C40.899 111.156 40.8954 111.156 40.892 111.156L40.8863 115.718C40.8922 115.718 40.8978 115.718 40.903 115.718V111.156ZM40.8891 111.156H39.9321V115.718H40.8891V111.156ZM42.2132 113.437V113.399H37.651V113.437H42.2132ZM40.1095 111.125C35.8323 110.792 33.2811 108.025 33.2811 105.499H28.7189C28.7189 111.216 34.0047 115.225 39.7547 115.674L40.1095 111.125ZM33.2811 105.499C33.2811 102.82 36.1967 99.8427 40.903 99.8427V95.2805C34.6707 95.2805 28.7189 99.4106 28.7189 105.499H33.2811ZM40.903 99.8427C40.9562 99.8427 41.0092 99.8431 41.0621 99.8439L41.1324 95.2823C41.0561 95.2811 40.9797 95.2805 40.903 95.2805V99.8427ZM43.3783 97.5631V97.5616H38.8162V97.5631H43.3783ZM43.3783 97.5616C43.3783 92.5617 48.6412 87.7026 56.2431 87.7026V83.1404C47.1153 83.1404 38.8162 89.1519 38.8162 97.5616H43.3783ZM56.2431 87.7026C61.211 87.7026 65.3579 89.8626 67.493 92.7989L71.1828 90.1159C68.0683 85.8326 62.4521 83.1404 56.2431 83.1404V87.7026ZM69.6086 93.7223C70.1879 93.6531 70.7824 93.617 71.3889 93.617V89.0549C70.6015 89.0549 69.8262 89.1017 69.0671 89.1925L69.6086 93.7223ZM71.3889 93.617C78.24 93.617 82.8944 97.9884 82.8944 102.387H87.4565C87.4565 94.5786 79.766 89.0549 71.3889 89.0549V93.617ZM82.8944 102.387C82.8944 106.512 78.8427 110.588 72.64 111.104L73.0183 115.651C80.6901 115.012 87.4565 109.688 87.4565 102.387H82.8944ZM70.5481 113.378V113.437H75.1102V113.378H70.5481ZM72.8292 111.156H71.4227V115.718H72.8292V111.156ZM71.4184 111.156C71.4084 111.156 71.3986 111.156 71.3889 111.156V115.718C71.4017 115.718 71.4144 115.718 71.4269 115.718L71.4184 111.156ZM71.3889 111.156C71.3792 111.156 71.3694 111.156 71.3594 111.156L71.3509 115.718C71.3634 115.718 71.3761 115.718 71.3889 115.718V111.156Z" fill="#202020" mask="url(#path-9-inside-3)"/>
</g>
<path d="M219.883 122.959C219.44 120.737 217.666 118.959 215.448 118.959H200.367V112.293C200.367 94.5154 186.173 80.2935 168.431 80.2935C150.689 80.2935 136.051 94.9598 136.051 112.293V118.959H123.188C120.97 118.959 119.196 120.737 118.753 122.959L106.777 222.043C106.777 223.376 106.777 224.709 107.664 225.598C108.551 226.487 109.882 226.931 111.212 226.931H227.424C228.755 226.931 230.085 226.487 230.972 225.598C231.859 224.709 232.303 223.376 231.859 222.043L219.883 122.959ZM144.922 112.293C144.922 99.4042 155.568 89.1822 167.987 89.1822C180.407 89.1822 191.496 99.8486 191.496 112.293V118.959H144.922V112.293ZM116.091 218.043L126.737 127.848H135.608V139.403C135.608 142.07 137.382 143.848 140.043 143.848C142.705 143.848 144.479 142.07 144.479 139.403V127.848H191.496V139.403C191.496 142.07 193.27 143.848 195.931 143.848C198.593 143.848 200.367 142.07 200.367 139.403V127.848H211.456L222.545 218.043H116.091Z" fill="#2F80ED"/>
<ellipse rx="3.70482" ry="3.7037" transform="matrix(-1 0 0 1 148.099 180.294)" fill="#2F80ED"/>
<ellipse rx="3.7048" ry="3.7037" transform="matrix(-1 0 0 1 189.137 180.294)" fill="#2F80ED"/>
<path opacity="0.2" fill-rule="evenodd" clip-rule="evenodd" d="M201.392 176.031C201.392 179.487 203.529 182.288 206.164 182.288C208.8 182.288 211.081 179.487 211.081 176.031C211.081 172.577 206.164 164.624 206.164 164.624C206.164 164.624 201.392 172.577 201.392 176.031Z" fill="#2F80ED"/>
<path d="M164.516 196.122C164.39 195.274 164.727 194.423 165.399 193.892L165.912 193.487C171.095 189.392 178.159 188.477 184.239 191.059V191.059C185.015 191.388 185.571 192.101 185.696 192.934V192.934C185.893 194.257 184.981 195.49 183.658 195.687L167.236 198.136C165.929 198.33 164.711 197.429 164.516 196.122V196.122Z" fill="#2F80ED"/>
</svg>
